<?xml version="1.0" standalone="no"?>
<!DOCTYPE svg PUBLIC "-//W3C//DTD SVG 20010904//EN"
 "http://www.w3.org/TR/2001/REC-SVG-20010904/DTD/svg10.dtd">
<svg version="1.0" xmlns="http://www.w3.org/2000/svg"
 width="500.000000pt" height="500.000000pt" viewBox="0 0 500.000000 500.000000"
 preserveAspectRatio="xMidYMid meet">
<metadata>
Created by potrace 1.14, written by Peter Selinger 2001-2017
</metadata>
<g transform="translate(0.000000,500.000000) scale(0.100000,-0.100000)"
fill="#000000" stroke="none">
<path d="M692 3194 c-1 -168 -3 -309 -6 -312 -3 -3 -142 -6 -308 -6 l-303 -1
0 -225 0 -225 308 -3 307 -2 1 -33 c0 -17 1 -156 2 -307 l2 -275 228 0 227 -1
0 308 0 308 310 0 310 0 0 229 0 228 -287 1 c-159 0 -298 1 -310 1 l-23 1 0
310 0 310 -229 0 -228 0 -1 -306z"/>
<path d="M2625 3470 c-8 -16 -42 -87 -74 -157 -32 -70 -77 -166 -99 -213 -21
-47 -53 -114 -69 -150 -17 -36 -49 -103 -71 -150 -22 -47 -103 -222 -181 -390
-78 -168 -148 -316 -155 -330 -31 -56 -34 -54 179 -154 110 -52 203 -91 207
-87 6 5 87 176 188 396 15 33 78 168 140 300 62 132 126 269 142 305 17 36 67
142 110 235 44 94 86 184 94 202 l13 31 -47 22 c-99 48 -220 104 -290 136
l-72 33 -15 -29z"/>
<path d="M3311 2880 c-4 -3 -7 -106 -7 -230 l1 -225 848 -1 847 -2 0 229 0
229 -27 0 c-218 4 -1657 4 -1662 0z"/>
</g>
</svg>
